HIERARCHY
ROOT root
{
	OFFSET 0.000000 0.000000 0.000000
	CHANNELS 6 Xposition Yposition Zposition Zrotation Yrotation Xrotation
	JOINT lhip
	{
		OFFSET 0.058581 -0.082280 -0.017664
		CHANNELS 3 Zrotation Yrotation Xrotation
		JOINT lknee
		{
			OFFSET 0.043451 -0.386469 0.008037
			CHANNELS 3 Zrotation Yrotation Xrotation
			JOINT lankle
			{
				OFFSET -0.014790 -0.426874 -0.037428
				CHANNELS 3 Zrotation Yrotation Xrotation
				JOINT ltoe
				{
					OFFSET 0.041054 -0.060286 0.122042
					CHANNELS 3 Zrotation Yrotation Xrotation
					End Site
					{
						OFFSET 0.000000 0.000000 0.000000
					}
				}
			}
		}
	}
	JOINT rhip
	{
		OFFSET -0.060310 -0.090513 -0.013543
		CHANNELS 3 Zrotation Yrotation Xrotation
		JOINT rknee
		{
			OFFSET -0.043257 -0.383688 -0.004843
			CHANNELS 3 Zrotation Yrotation Xrotation
			JOINT rankle
			{
				OFFSET 0.019056 -0.420046 -0.034562
				CHANNELS 3 Zrotation Yrotation Xrotation
				JOINT rtoe
				{
					OFFSET -0.034840 -0.062106 0.130323
					CHANNELS 3 Zrotation Yrotation Xrotation
					End Site
					{
						OFFSET 0.000000 0.000000 0.000000
					}
				}
			}
		}
	}
	JOINT lowerback
	{
		OFFSET 0.004439 0.124404 -0.038385
		CHANNELS 3 Zrotation Yrotation Xrotation
		JOINT upperback
		{
			OFFSET 0.004488 0.137956 0.026820
			CHANNELS 3 Zrotation Yrotation Xrotation
			JOINT chest
			{
				OFFSET -0.002265 0.056032 0.002855
				CHANNELS 3 Zrotation Yrotation Xrotation
				JOINT lowerneck
				{
					OFFSET -0.013390 0.211636 -0.033468
					CHANNELS 3 Zrotation Yrotation Xrotation
					JOINT upperneck
					{
						OFFSET 0.010113 0.088937 0.050410
						CHANNELS 3 Zrotation Yrotation Xrotation
						End Site
						{
							OFFSET 0.000000 0.000000 0.000000
						}
					}
				}
				JOINT lclavicle
				{
					OFFSET 0.071702 0.114000 -0.018898
					CHANNELS 3 Zrotation Yrotation Xrotation
					JOINT lshoulder
					{
						OFFSET 0.122921 0.045205 -0.019046
						CHANNELS 3 Zrotation Yrotation Xrotation
						JOINT lelbow
						{
							OFFSET 0.255332 -0.015649 -0.022946
							CHANNELS 3 Zrotation Yrotation Xrotation
							JOINT lwrist
							{
								OFFSET 0.265709 0.012698 -0.007375
								CHANNELS 3 Zrotation Yrotation Xrotation
								End Site
								{
									OFFSET 0.000000 0.000000 0.000000
								}
							}
						}
					}
				}
				JOINT rclavicle
				{
					OFFSET -0.082954 0.112472 -0.023707
					CHANNELS 3 Zrotation Yrotation Xrotation
					JOINT rshoulder
					{
						OFFSET -0.113228 0.046853 -0.008472
						CHANNELS 3 Zrotation Yrotation Xrotation
						JOINT relbow
						{
							OFFSET -0.260127 -0.014369 -0.031269
							CHANNELS 3 Zrotation Yrotation Xrotation
							JOINT rwrist
							{
								OFFSET -0.269108 0.006794 -0.006027
								CHANNELS 3 Zrotation Yrotation Xrotation
								End Site
								{
									OFFSET 0.000000 0.000000 0.000000
								}
							}
						}
					}
				}
			}
		}
	}
}
MOTION
Frames: 8
Frame Time: 0.033333
-0.236856 2.438762 0.924229 -121.457648 4.597678 99.622689 5.758929 0.197483 -45.218534 -5.613073 2.483886 35.136863 2.310928 6.541874 -9.355203 0.000000 -0.000000 0.000000 -9.774839 -13.861885 -27.132016 -2.006822 -8.946679 54.514971 8.382583 -3.868534 -19.191879 0.000000 -0.000000 0.000000 -1.594012 7.466342 49.819571 -3.803809 -0.925108 -9.646969 1.104193 0.669059 3.202567 -9.328851 7.084821 -24.320658 -0.914553 -1.194013 -0.691128 -19.306556 -14.720889 -1.807923 -32.203694 -11.935928 7.025600 9.466892 -59.041107 -6.482556 21.428429 -14.235215 -28.667055 21.422284 23.108127 -1.206443 35.066460 18.501178 8.318387 -20.026167 50.518113 -26.420773 -15.801340 18.830109 -23.494871 
-0.234401 2.449176 0.927046 -120.939837 4.909881 100.242398 6.234391 0.834562 -45.400687 -5.538144 1.655259 34.725104 1.632842 6.123265 -9.210157 0.000000 -0.000000 0.000000 -9.527208 -12.786558 -28.811206 -1.629517 -6.675704 49.539409 8.804331 -2.753743 -19.733283 0.000000 -0.000000 0.000000 -1.865417 6.869274 49.147091 -3.347288 -0.856856 -9.503080 1.420989 0.823560 3.279436 -9.648008 7.671611 -24.329876 -1.079303 -1.403106 -0.903581 -18.849962 -14.534774 -2.099891 -31.270134 -13.070069 6.809051 12.159341 -59.939859 -9.405134 21.523689 -13.826383 -29.161393 21.640079 22.507646 -1.045828 34.750512 18.426932 8.392648 -21.090072 50.333190 -27.188926 -13.877843 18.928675 -22.512980 
-0.229948 2.460169 0.928412 -120.432055 5.136329 100.646006 6.709129 1.512301 -45.658369 -5.538222 1.057925 34.543325 1.278832 5.928320 -8.935996 0.000000 -0.000000 0.000000 -9.213054 -11.418202 -30.809771 1.006861 -2.944524 46.371756 9.139804 0.040636 -19.718062 0.000000 -0.000000 0.000000 -1.967867 6.519254 48.420601 -2.838495 -0.697228 -8.689686 1.588201 0.626609 2.942001 -9.775092 8.215475 -24.347330 -1.362933 -1.211263 -1.210426 -18.734013 -14.330564 -2.575162 -30.290558 -13.636590 7.033765 14.311086 -60.745233 -12.656419 22.509588 -13.564444 -29.607408 21.902835 21.910914 -1.025788 34.081855 18.351375 9.008195 -20.785957 50.417366 -27.818302 -13.925881 18.880923 -22.502683 
-0.223714 2.472372 0.929849 -120.152931 5.203160 100.755357 7.470349 1.939246 -45.467163 -5.593185 0.623820 34.100775 0.569958 6.000213 -8.684432 0.000000 -0.000000 0.000000 -8.641886 -9.225844 -32.538879 2.990390 0.608929 44.861363 9.495700 2.474828 -19.959537 0.000000 -0.000000 0.000000 -2.422700 6.101855 48.024468 -2.586934 -0.268363 -8.153206 1.677098 0.571839 2.615749 -9.990023 8.668639 -24.462570 -1.469741 -1.261773 -1.264525 -19.011457 -14.026543 -2.667231 -29.289307 -13.820481 7.080043 16.333961 -61.246809 -15.920761 23.671600 -13.575457 -29.782678 22.574774 21.536241 -0.722935 33.093514 18.206787 9.331648 -19.635610 50.604057 -27.270369 -15.288227 19.042131 -22.964517 
-0.216862 2.485104 0.931562 -119.403104 4.906925 100.362503 7.686478 1.986282 -44.724122 -5.333065 -0.161262 33.423928 -0.435666 6.008887 -8.122867 0.000000 -0.000000 0.000000 -7.929989 -7.312922 -33.427908 2.764940 2.077161 45.199274 9.420661 3.325766 -20.285975 0.000000 -0.000000 0.000000 -2.828700 5.466028 48.623465 -2.550746 -0.059533 -8.272177 1.827857 0.551692 2.428734 -10.159551 8.980008 -24.165969 -1.487385 -1.033779 -1.900890 -19.341650 -13.810822 -2.408039 -29.030245 -13.332078 7.234112 19.012681 -61.841788 -19.132992 24.603181 -13.453293 -30.517016 22.842860 21.292846 -0.691058 32.770238 17.800287 9.529058 -18.832501 50.767239 -26.389895 -16.260849 18.916537 -23.221292 
-0.208149 2.498529 0.931626 -117.963998 4.530186 100.197142 8.477650 1.334411 -44.441605 -5.703460 -0.415474 32.749389 -0.548583 6.296159 -7.313590 0.000000 -0.000000 0.000000 -7.227803 -5.990882 -34.265437 3.200104 2.141535 47.012739 8.714741 4.025659 -19.775048 0.000000 -0.000000 0.000000 -2.300231 4.481139 48.742598 -2.465008 -0.293822 -8.520627 1.173600 0.247863 2.821277 -10.240111 9.396503 -24.748167 -1.378471 -1.154286 -1.395831 -19.985583 -13.443684 -2.646995 -28.630814 -12.015789 6.372397 18.392590 -62.893941 -18.420901 24.678526 -13.605037 -30.888815 23.433865 21.437911 -0.539944 32.283822 17.256622 8.540958 -17.213568 50.915568 -23.701870 -16.114697 19.060448 -23.726168 
-0.198610 2.511659 0.931000 -116.211646 3.432157 99.725196 8.112476 0.877638 -43.926902 -5.729976 -1.201874 31.829515 -1.152179 5.865760 -6.339523 0.000000 -0.000000 0.000000 -6.925995 -5.340932 -34.161741 2.577464 1.735012 48.746415 7.169573 2.863050 -19.968502 0.000000 -0.000000 0.000000 -2.459039 3.560717 49.249703 -2.655977 -0.414262 -8.996248 0.990600 0.051492 2.990221 -10.377501 8.824383 -24.501912 -1.152020 -0.765944 -1.378135 -20.823101 -12.859975 -2.497362 -29.091753 -11.237706 6.554491 17.760297 -63.671260 -17.554118 25.132358 -13.081030 -32.346778 23.527646 21.168497 -0.549240 32.505354 16.507744 8.550286 -16.789707 51.014094 -22.810372 -16.588874 18.947934 -24.086179 
-0.187744 2.526837 0.930059 -114.502636 1.640805 99.203370 6.991366 0.848567 -43.107522 -5.345413 -1.654629 30.397213 -2.957569 4.494062 -4.778966 0.000000 -0.000000 0.000000 -7.174109 -5.200136 -33.184299 1.063674 1.642959 48.767896 6.615749 1.960048 -21.403295 0.000000 -0.000000 0.000000 -3.233822 2.944788 49.841670 -3.293588 -0.374020 -9.118135 1.044956 0.026737 2.538378 -10.112295 7.715124 -23.855648 -0.871474 -0.211890 -1.400891 -21.767074 -12.075930 -1.848503 -29.381113 -10.633268 7.009528 17.748663 -63.942347 -17.856093 23.551874 -13.819981 -30.819591 23.390137 20.612059 -0.425519 33.226277 15.790219 9.054538 -16.899628 50.883884 -24.090804 -17.003784 19.151020 -23.696154 
